<svg version="1.0" xmlns="http://www.w3.org/2000/svg"
 width="2559.000000pt" height="677.000000pt" viewBox="0 0 2559.000000 677.000000"
 preserveAspectRatio="xMidYMid meet">

<g transform="translate(0.000000,677.000000) scale(0.100000,-0.100000)"
fill="#e8563a" stroke="none">
<path d="M25 6745 c-14 -13 -25 -34 -25 -47 0 -52 880 -6380 890 -6398 6 -11
19 -24 30 -30 12 -6 4227 -55 12316 -140 11091 -118 12299 -129 12320 -115 13
8 26 26 30 40 6 23 -756 5345 -777 5428 -6 20 -20 44 -33 52 -19 12 -2153 120
-12351 625 -6781 336 -12340 610 -12353 610 -12 0 -34 -11 -47 -25z"/>
</g>
</svg>
