<svg version="1.0" xmlns="http://www.w3.org/2000/svg"
 width="3095.000000pt" height="1043.000000pt" viewBox="0 0 3095.000000 1043.000000"
 preserveAspectRatio="xMidYMid meet">

<g transform="translate(0.000000,1043.000000) scale(0.100000,-0.100000)"
fill="#FFFFFF" stroke="none">
<path d="M14609 8930 c-7989 -823 -14538 -1500 -14552 -1504 -44 -11 -61 -47
-53 -114 19 -172 26 -265 36 -432 6 -102 19 -288 30 -415 11 -126 27 -354 35
-505 21 -380 51 -836 80 -1215 13 -176 34 -480 45 -675 58 -990 104 -1742 140
-2275 22 -324 56 -849 75 -1165 38 -610 38 -613 89 -626 13 -3 6849 607 15191
1355 11804 1059 15173 1364 15191 1376 13 8 27 27 30 41 5 18 -267 1260 -825
3773 -458 2060 -839 3769 -847 3798 -17 62 -43 83 -99 82 -22 -1 -6577 -675
-14566 -1499z"/>
</g>
</svg>
