<svg version="1.0" xmlns="http://www.w3.org/2000/svg"
 width="2923.000000pt" height="1035.000000pt" viewBox="0 0 2923.000000 1035.000000"
 preserveAspectRatio="xMidYMid meet">

<g transform="translate(0.000000,1035.000000) scale(0.100000,-0.100000)"
fill="#FFFFFF" stroke="none">
<path d="M25 10325 c-14 -13 -25 -35 -25 -48 0 -70 961 -9661 970 -9677 6 -11
19 -24 30 -30 12 -6 5052 -110 14092 -291 11916 -237 14077 -278 14098 -267
14 8 29 25 33 38 11 30 -906 8308 -923 8340 -6 11 -19 24 -30 30 -15 8 -28094
1930 -28197 1930 -13 0 -35 -11 -48 -25z"/>
</g>
</svg>